<svg width="309" height="309" viewBox="0 0 309 309" xmlns="http://www.w3.org/2000/svg">
<path d="M221.771 42.728H94.088C90.1786 42.728 87.0093 45.8987 87.0093 49.8067V107.141H94.9853V50.704H220.873V228.955H94.9853V195.285H87.0093V229.851C87.0093 233.76 90.1786 236.928 94.088 236.928H221.771C225.68 236.928 228.851 233.76 228.851 229.851V49.8067C228.851 45.8987 225.68 42.728 221.771 42.728Z" fill="#263961"/>
<path d="M117.397 270.257C117.212 270.257 117.027 270.219 116.852 270.139L105.877 265.129L94.9027 270.139C94.496 270.323 94.0213 270.291 93.6453 270.049C93.2707 269.807 93.0427 269.391 93.0427 268.944V242.979C93.0427 242.252 93.6293 241.664 94.356 241.664H117.397C118.125 241.664 118.712 242.252 118.712 242.979V268.944C118.712 269.391 118.484 269.807 118.111 270.049C117.893 270.188 117.645 270.257 117.397 270.257Z" fill="#263961"/>
<path d="M102.478 150.779C103.911 151.085 105.061 151.801 105.93 152.928C106.799 154.032 107.234 155.3 107.234 156.732C107.234 158.799 106.506 160.442 105.05 161.664C103.617 162.861 101.609 163.46 99.0263 163.46H87.5079V138.732H98.6388C101.151 138.732 103.112 139.308 104.521 140.458C105.954 141.609 106.67 143.171 106.67 145.143C106.67 146.599 106.282 147.809 105.508 148.771C104.756 149.734 103.746 150.404 102.478 150.779ZM93.5313 148.736H97.4764C98.4627 148.736 99.2141 148.525 99.7308 148.102C100.271 147.656 100.541 147.01 100.541 146.165C100.541 145.319 100.271 144.674 99.7308 144.227C99.2141 143.781 98.4627 143.558 97.4764 143.558H93.5313V148.736ZM97.9695 158.599C98.9793 158.599 99.7542 158.376 100.294 157.93C100.858 157.46 101.14 156.791 101.14 155.922C101.14 155.053 100.846 154.372 100.259 153.879C99.6955 153.386 98.9089 153.139 97.8991 153.139H93.5313V158.599H97.9695ZM122.422 163.707C120.097 163.707 117.96 163.166 116.011 162.086C114.085 161.006 112.547 159.503 111.396 157.578C110.269 155.628 109.706 153.445 109.706 151.026C109.706 148.607 110.269 146.435 111.396 144.509C112.547 142.584 114.085 141.081 116.011 140.001C117.96 138.92 120.097 138.38 122.422 138.38C124.746 138.38 126.872 138.92 128.797 140.001C130.746 141.081 132.273 142.584 133.376 144.509C134.504 146.435 135.067 148.607 135.067 151.026C135.067 153.445 134.504 155.628 133.376 157.578C132.249 159.503 130.723 161.006 128.797 162.086C126.872 163.166 124.746 163.707 122.422 163.707ZM122.422 158.212C124.394 158.212 125.968 157.554 127.142 156.239C128.339 154.924 128.938 153.186 128.938 151.026C128.938 148.842 128.339 147.104 127.142 145.813C125.968 144.498 124.394 143.84 122.422 143.84C120.426 143.84 118.829 144.486 117.631 145.777C116.457 147.069 115.87 148.818 115.87 151.026C115.87 153.21 116.457 154.959 117.631 156.274C118.829 157.566 120.426 158.212 122.422 158.212ZM150.113 163.707C147.788 163.707 145.651 163.166 143.702 162.086C141.776 161.006 140.238 159.503 139.087 157.578C137.96 155.628 137.397 153.445 137.397 151.026C137.397 148.607 137.96 146.435 139.087 144.509C140.238 142.584 141.776 141.081 143.702 140.001C145.651 138.92 147.788 138.38 150.113 138.38C152.437 138.38 154.563 138.92 156.488 140.001C158.437 141.081 159.964 142.584 161.067 144.509C162.195 146.435 162.758 148.607 162.758 151.026C162.758 153.445 162.195 155.628 161.067 157.578C159.94 159.503 158.414 161.006 156.488 162.086C154.563 163.166 152.437 163.707 150.113 163.707ZM150.113 158.212C152.085 158.212 153.659 157.554 154.833 156.239C156.03 154.924 156.629 153.186 156.629 151.026C156.629 148.842 156.03 147.104 154.833 145.813C153.659 144.498 152.085 143.84 150.113 143.84C148.117 143.84 146.52 144.486 145.322 145.777C144.148 147.069 143.561 148.818 143.561 151.026C143.561 153.21 144.148 154.959 145.322 156.274C146.52 157.566 148.117 158.212 150.113 158.212ZM180.446 163.46L172.133 152.54V163.46H166.109V138.732H172.133V149.582L180.375 138.732H187.455L177.874 150.85L187.807 163.46H180.446ZM199.617 163.707C197.809 163.707 196.188 163.413 194.756 162.826C193.324 162.239 192.173 161.37 191.304 160.219C190.459 159.069 190.012 157.683 189.965 156.063H196.376C196.47 156.979 196.787 157.683 197.327 158.176C197.867 158.646 198.572 158.881 199.441 158.881C200.333 158.881 201.038 158.681 201.554 158.282C202.071 157.859 202.329 157.284 202.329 156.556C202.329 155.945 202.118 155.441 201.695 155.041C201.296 154.642 200.791 154.313 200.181 154.055C199.593 153.797 198.748 153.503 197.644 153.174C196.048 152.681 194.744 152.188 193.734 151.695C192.725 151.202 191.856 150.474 191.128 149.511C190.4 148.548 190.036 147.292 190.036 145.742C190.036 143.441 190.87 141.644 192.537 140.353C194.204 139.038 196.376 138.38 199.053 138.38C201.777 138.38 203.973 139.038 205.64 140.353C207.308 141.644 208.2 143.453 208.317 145.777H201.801C201.754 144.979 201.46 144.357 200.92 143.91C200.38 143.441 199.687 143.206 198.842 143.206C198.114 143.206 197.527 143.406 197.081 143.805C196.635 144.181 196.412 144.732 196.412 145.46C196.412 146.259 196.787 146.881 197.539 147.327C198.29 147.773 199.464 148.255 201.061 148.771C202.658 149.312 203.95 149.828 204.936 150.321C205.946 150.814 206.814 151.531 207.542 152.47C208.27 153.409 208.634 154.619 208.634 156.098C208.634 157.507 208.27 158.787 207.542 159.938C206.838 161.088 205.805 162.004 204.443 162.685C203.081 163.366 201.472 163.707 199.617 163.707Z" fill="#263961"/>
<path d="M99.791 110.472V115.298H93.2393V135.2H87.2159V115.298H80.6642V110.472H99.791ZM124.23 110.472V135.2H118.207V125.02H108.837V135.2H102.814V110.472H108.837V120.159H118.207V110.472H124.23ZM134.602 115.298V120.3H142.668V124.95H134.602V130.374H143.725V135.2H128.579V110.472H143.725V115.298H134.602Z" fill="#263961"/>
<path d="M106.353 174.943C106.353 176.376 106.024 177.691 105.367 178.888C104.709 180.062 103.699 181.014 102.337 181.742C100.975 182.469 99.2846 182.833 97.265 182.833H93.5313V191.71H87.5079V166.982H97.265C99.2376 166.982 100.905 167.323 102.267 168.004C103.629 168.685 104.65 169.624 105.331 170.822C106.012 172.02 106.353 173.393 106.353 174.943ZM96.8071 178.043C97.9578 178.043 98.8149 177.773 99.3785 177.233C99.9421 176.693 100.224 175.929 100.224 174.943C100.224 173.957 99.9421 173.194 99.3785 172.654C98.8149 172.114 97.9578 171.843 96.8071 171.843H93.5313V178.043H96.8071ZM115.512 187.06H123.402V191.71H109.489V166.982H115.512V187.06ZM141.668 187.342H132.44L130.96 191.71H124.655L133.602 166.982H140.576L149.523 191.71H143.148L141.668 187.342ZM140.119 182.693L137.054 173.64L134.025 182.693H140.119ZM151.225 179.311C151.225 176.869 151.753 174.697 152.81 172.795C153.867 170.869 155.334 169.378 157.213 168.321C159.115 167.241 161.264 166.701 163.659 166.701C166.595 166.701 169.107 167.476 171.197 169.026C173.287 170.575 174.684 172.689 175.389 175.366H168.767C168.274 174.333 167.569 173.546 166.653 173.006C165.761 172.466 164.739 172.196 163.589 172.196C161.734 172.196 160.231 172.841 159.08 174.133C157.929 175.425 157.354 177.151 157.354 179.311C157.354 181.471 157.929 183.197 159.08 184.489C160.231 185.781 161.734 186.426 163.589 186.426C164.739 186.426 165.761 186.156 166.653 185.616C167.569 185.076 168.274 184.289 168.767 183.256H175.389C174.684 185.933 173.287 188.047 171.197 189.597C169.107 191.123 166.595 191.886 163.659 191.886C161.264 191.886 159.115 191.358 157.213 190.301C155.334 189.221 153.867 187.73 152.81 185.828C151.753 183.925 151.225 181.753 151.225 179.311ZM185.101 171.808V176.81H193.167V181.46H185.101V186.884H194.224V191.71H179.078V166.982H194.224V171.808H185.101Z" fill="#263961"/>
<path d="M154.335 0.542649C69.3987 0.542649 0.545319 69.3959 0.545319 154.332C0.545319 239.267 69.3987 308.121 154.335 308.121C239.269 308.121 308.124 239.267 308.124 154.332C308.124 69.3959 239.269 0.542649 154.335 0.542649ZM154.335 10.112C192.857 10.112 229.075 25.1146 256.312 52.3546C283.553 79.5933 298.553 115.809 298.553 154.332C298.553 192.855 283.553 229.072 256.312 256.309C229.075 283.551 192.857 298.551 154.335 298.551C115.812 298.551 79.5947 283.551 52.356 256.309C25.116 229.072 10.1147 192.855 10.1147 154.332C10.1147 115.809 25.116 79.5933 52.356 52.3546C79.5947 25.1146 115.812 10.112 154.335 10.112Z" fill="#263961"/>
</svg>
